<svg width="48" height="48" viewBox="0 0 48 48" xmlns="http://www.w3.org/2000/svg" role="img" aria-label="systemd">
  <rect width="48" height="48" rx="12" fill="#0a0a14"/>
  <rect width="48" height="48" rx="12" fill="none" stroke="#30B2AC" stroke-width="1" opacity="0.5"/>
  <!-- systemd gear/cog simplified -->
  <circle cx="24" cy="24" r="10" stroke="#30B2AC" stroke-width="1.5" fill="none"/>
  <circle cx="24" cy="24" r="4" fill="#30B2AC"/>
  <!-- gear teeth -->
  <rect x="22.5" y="10" width="3" height="5" rx="1" fill="#30B2AC"/>
  <rect x="22.5" y="33" width="3" height="5" rx="1" fill="#30B2AC"/>
  <rect x="10" y="22.5" width="5" height="3" rx="1" fill="#30B2AC"/>
  <rect x="33" y="22.5" width="5" height="3" rx="1" fill="#30B2AC"/>
  <rect x="13.5" y="13.5" width="3" height="5" rx="1" fill="#30B2AC" transform="rotate(45 15 16)"/>
  <rect x="31.5" y="13.5" width="3" height="5" rx="1" fill="#30B2AC" transform="rotate(-45 33 16)"/>
  <rect x="13.5" y="29.5" width="3" height="5" rx="1" fill="#30B2AC" transform="rotate(-45 15 32)"/>
  <rect x="31.5" y="29.5" width="3" height="5" rx="1" fill="#30B2AC" transform="rotate(45 33 32)"/>
</svg>
